<svg id="visual" viewBox="0 0 1920 1080" width="1920" height="1080" xmlns="http://www.w3.org/2000/svg" xmlns:xlink="http://www.w3.org/1999/xlink" version="1.1"><rect x="0" y="0" width="1920" height="1080" fill="#0f0f0f"></rect><defs><linearGradient id="grad1_0" x1="43.8%" y1="0%" x2="100%" y2="100%"><stop offset="14.444444444444446%" stop-color="#16253b" stop-opacity="1"></stop><stop offset="85.55555555555554%" stop-color="#16253b" stop-opacity="1"></stop></linearGradient></defs><defs><linearGradient id="grad1_1" x1="43.8%" y1="0%" x2="100%" y2="100%"><stop offset="14.444444444444446%" stop-color="#16253b" stop-opacity="1"></stop><stop offset="85.55555555555554%" stop-color="#162133" stop-opacity="1"></stop></linearGradient></defs><defs><linearGradient id="grad1_2" x1="43.8%" y1="0%" x2="100%" y2="100%"><stop offset="14.444444444444446%" stop-color="#161e2c" stop-opacity="1"></stop><stop offset="85.55555555555554%" stop-color="#162133" stop-opacity="1"></stop></linearGradient></defs><defs><linearGradient id="grad1_3" x1="43.8%" y1="0%" x2="100%" y2="100%"><stop offset="14.444444444444446%" stop-color="#161e2c" stop-opacity="1"></stop><stop offset="85.55555555555554%" stop-color="#151a25" stop-opacity="1"></stop></linearGradient></defs><defs><linearGradient id="grad1_4" x1="43.8%" y1="0%" x2="100%" y2="100%"><stop offset="14.444444444444446%" stop-color="#14171e" stop-opacity="1"></stop><stop offset="85.55555555555554%" stop-color="#151a25" stop-opacity="1"></stop></linearGradient></defs><defs><linearGradient id="grad1_5" x1="43.8%" y1="0%" x2="100%" y2="100%"><stop offset="14.444444444444446%" stop-color="#14171e" stop-opacity="1"></stop><stop offset="85.55555555555554%" stop-color="#121317" stop-opacity="1"></stop></linearGradient></defs><defs><linearGradient id="grad1_6" x1="43.8%" y1="0%" x2="100%" y2="100%"><stop offset="14.444444444444446%" stop-color="#0f0f0f" stop-opacity="1"></stop><stop offset="85.55555555555554%" stop-color="#121317" stop-opacity="1"></stop></linearGradient></defs><defs><linearGradient id="grad2_0" x1="0%" y1="0%" x2="56.3%" y2="100%"><stop offset="14.444444444444446%" stop-color="#16253b" stop-opacity="1"></stop><stop offset="85.55555555555554%" stop-color="#16253b" stop-opacity="1"></stop></linearGradient></defs><defs><linearGradient id="grad2_1" x1="0%" y1="0%" x2="56.3%" y2="100%"><stop offset="14.444444444444446%" stop-color="#162133" stop-opacity="1"></stop><stop offset="85.55555555555554%" stop-color="#16253b" stop-opacity="1"></stop></linearGradient></defs><defs><linearGradient id="grad2_2" x1="0%" y1="0%" x2="56.3%" y2="100%"><stop offset="14.444444444444446%" stop-color="#162133" stop-opacity="1"></stop><stop offset="85.55555555555554%" stop-color="#161e2c" stop-opacity="1"></stop></linearGradient></defs><defs><linearGradient id="grad2_3" x1="0%" y1="0%" x2="56.3%" y2="100%"><stop offset="14.444444444444446%" stop-color="#151a25" stop-opacity="1"></stop><stop offset="85.55555555555554%" stop-color="#161e2c" stop-opacity="1"></stop></linearGradient></defs><defs><linearGradient id="grad2_4" x1="0%" y1="0%" x2="56.3%" y2="100%"><stop offset="14.444444444444446%" stop-color="#151a25" stop-opacity="1"></stop><stop offset="85.55555555555554%" stop-color="#14171e" stop-opacity="1"></stop></linearGradient></defs><defs><linearGradient id="grad2_5" x1="0%" y1="0%" x2="56.3%" y2="100%"><stop offset="14.444444444444446%" stop-color="#121317" stop-opacity="1"></stop><stop offset="85.55555555555554%" stop-color="#14171e" stop-opacity="1"></stop></linearGradient></defs><defs><linearGradient id="grad2_6" x1="0%" y1="0%" x2="56.3%" y2="100%"><stop offset="14.444444444444446%" stop-color="#121317" stop-opacity="1"></stop><stop offset="85.55555555555554%" stop-color="#0f0f0f" stop-opacity="1"></stop></linearGradient></defs><g transform="translate(1920, 0)"><path d="M0 1080C-111.7 1062.6 -223.5 1045.1 -325.7 1002.4C-428 959.7 -520.7 891.7 -591.9 814.7C-663.1 737.7 -712.6 651.7 -790.4 574.3C-868.2 496.9 -974.2 428 -1027.1 333.7C-1080.1 239.5 -1080.1 119.7 -1080 0L0 0Z" fill="#101113"></path><path d="M0 925.7C-95.8 910.8 -191.5 895.8 -279.2 859.2C-366.8 822.6 -446.3 764.3 -507.3 698.3C-568.3 632.3 -610.8 558.6 -677.5 492.2C-744.2 425.9 -835 366.9 -880.4 286.1C-925.8 205.2 -925.8 102.6 -925.7 0L0 0Z" fill="#13151a"></path><path d="M0 771.4C-79.8 759 -159.6 746.5 -232.6 716C-305.7 685.5 -372 636.9 -422.8 581.9C-473.6 526.9 -509 465.5 -564.6 410.2C-620.1 354.9 -695.8 305.7 -733.7 238.4C-771.5 171 -771.5 85.5 -771.4 0L0 0Z" fill="#141921"></path><path d="M0 617.1C-63.8 607.2 -127.7 597.2 -186.1 572.8C-244.5 548.4 -297.6 509.5 -338.2 465.5C-378.9 421.5 -407.2 372.4 -451.7 328.2C-496.1 283.9 -556.7 244.6 -586.9 190.7C-617.2 136.8 -617.2 68.4 -617.1 0L0 0Z" fill="#151c29"></path><path d="M0 462.9C-47.9 455.4 -95.8 447.9 -139.6 429.6C-183.4 411.3 -223.2 382.1 -253.7 349.1C-284.2 316.1 -305.4 279.3 -338.7 246.1C-372.1 212.9 -417.5 183.4 -440.2 143C-462.9 102.6 -462.9 51.3 -462.9 0L0 0Z" fill="#162030"></path><path d="M0 308.6C-31.9 303.6 -63.8 298.6 -93.1 286.4C-122.3 274.2 -148.8 254.8 -169.1 232.8C-189.4 210.8 -203.6 186.2 -225.8 164.1C-248.1 142 -278.3 122.3 -293.5 95.4C-308.6 68.4 -308.6 34.2 -308.6 0L0 0Z" fill="#162337"></path><path d="M0 154.3C-16 151.8 -31.9 149.3 -46.5 143.2C-61.1 137.1 -74.4 127.4 -84.6 116.4C-94.7 105.4 -101.8 93.1 -112.9 82C-124 71 -139.2 61.1 -146.7 47.7C-154.3 34.2 -154.3 17.1 -154.3 0L0 0Z" fill="#16253b"></path></g><g transform="translate(0, 1080)"><path d="M0 -1080C95.3 -1016.9 190.6 -953.7 302.5 -931.1C414.5 -908.4 543.1 -926.3 634.8 -873.7C726.6 -821.2 781.4 -698.2 809.8 -588.4C838.2 -478.6 840.1 -382 880.7 -286.1C921.3 -190.3 1000.6 -95.1 1080 0L0 0Z" fill="#101113"></path><path d="M0 -925.7C81.7 -871.6 163.4 -817.5 259.3 -798.1C355.3 -778.7 465.5 -794 544.1 -748.9C622.8 -703.9 669.8 -598.4 694.1 -504.3C718.5 -410.2 720.1 -327.4 754.9 -245.3C789.7 -163.1 857.7 -81.6 925.7 0L0 0Z" fill="#13151a"></path><path d="M0 -771.4C68.1 -726.3 136.1 -681.2 216.1 -665.1C296.1 -648.9 387.9 -661.6 453.4 -624.1C519 -586.5 558.2 -498.7 578.4 -420.3C598.7 -341.8 600 -272.9 629.1 -204.4C658.1 -135.9 714.7 -68 771.4 0L0 0Z" fill="#141921"></path><path d="M0 -617.1C54.5 -581.1 108.9 -545 172.9 -532C236.8 -519.1 310.3 -529.3 362.7 -499.3C415.2 -469.2 446.5 -399 462.8 -336.2C479 -273.5 480 -218.3 503.2 -163.5C526.5 -108.7 571.8 -54.4 617.1 0L0 0Z" fill="#151c29"></path><path d="M0 -462.9C40.8 -435.8 81.7 -408.7 129.7 -399C177.6 -389.3 232.7 -397 272.1 -374.5C311.4 -351.9 334.9 -299.2 347.1 -252.2C359.2 -205.1 360 -163.7 377.4 -122.6C394.8 -81.6 428.8 -40.8 462.9 0L0 0Z" fill="#162030"></path><path d="M0 -308.6C27.2 -290.5 54.5 -272.5 86.4 -266C118.4 -259.6 155.2 -264.7 181.4 -249.6C207.6 -234.6 223.3 -199.5 231.4 -168.1C239.5 -136.7 240 -109.1 251.6 -81.8C263.2 -54.4 285.9 -27.2 308.6 0L0 0Z" fill="#162337"></path><path d="M0 -154.3C13.6 -145.3 27.2 -136.2 43.2 -133C59.2 -129.8 77.6 -132.3 90.7 -124.8C103.8 -117.3 111.6 -99.7 115.7 -84.1C119.7 -68.4 120 -54.6 125.8 -40.9C131.6 -27.2 142.9 -13.6 154.3 0L0 0Z" fill="#16253b"></path></g></svg>