<svg id="visual" viewBox="0 0 1920 1080" width="1920" height="1080" xmlns="http://www.w3.org/2000/svg" xmlns:xlink="http://www.w3.org/1999/xlink" version="1.1"><path d="M0 141L101 239L202 282L303 131L404 260L505 249L606 141L707 163L808 120L909 239L1011 271L1112 249L1213 185L1314 228L1415 206L1516 249L1617 271L1718 163L1819 152L1920 206L1920 0L1819 0L1718 0L1617 0L1516 0L1415 0L1314 0L1213 0L1112 0L1011 0L909 0L808 0L707 0L606 0L505 0L404 0L303 0L202 0L101 0L0 0Z" fill="#070707"></path><path d="M0 239L101 314L202 411L303 271L404 455L505 444L606 239L707 282L808 336L909 411L1011 357L1112 379L1213 390L1314 455L1415 325L1516 401L1617 357L1718 260L1819 357L1920 293L1920 204L1819 150L1718 161L1617 269L1516 247L1415 204L1314 226L1213 183L1112 247L1011 269L909 237L808 118L707 161L606 139L505 247L404 258L303 129L202 280L101 237L0 139Z" fill="#090811"></path><path d="M0 519L101 649L202 627L303 649L404 584L505 584L606 757L707 692L808 563L909 649L1011 660L1112 843L1213 779L1314 617L1415 530L1516 627L1617 638L1718 498L1819 779L1920 530L1920 291L1819 355L1718 258L1617 355L1516 399L1415 323L1314 453L1213 388L1112 377L1011 355L909 409L808 334L707 280L606 237L505 442L404 453L303 269L202 409L101 312L0 237Z" fill="#0a0818"></path><path d="M0 897L101 941L202 962L303 973L404 930L505 930L606 995L707 1016L808 930L909 930L1011 973L1112 995L1213 919L1314 1005L1415 919L1516 930L1617 919L1718 930L1819 973L1920 908L1920 528L1819 777L1718 496L1617 636L1516 625L1415 528L1314 615L1213 777L1112 841L1011 658L909 647L808 561L707 690L606 755L505 582L404 582L303 647L202 625L101 647L0 517Z" fill="#0b091e"></path><path d="M0 1081L101 1081L202 1081L303 1081L404 1081L505 1081L606 1081L707 1081L808 1081L909 1081L1011 1081L1112 1081L1213 1081L1314 1081L1415 1081L1516 1081L1617 1081L1718 1081L1819 1081L1920 1081L1920 906L1819 971L1718 928L1617 917L1516 928L1415 917L1314 1003L1213 917L1112 993L1011 971L909 928L808 928L707 1014L606 993L505 928L404 928L303 971L202 960L101 939L0 895Z" fill="#0a0a24"></path></svg>